<?xml version="1.0" encoding="utf-8"?>
<!-- Generator: Adobe Illustrator 27.0.0, SVG Export Plug-In . SVG Version: 6.00 Build 0)  -->
<svg version="1.1" id="Calque_1" xmlns="http://www.w3.org/2000/svg" xmlns:xlink="http://www.w3.org/1999/xlink" x="0px" y="0px"
	 viewBox="0 0 94 60.9" style="enable-background:new 0 0 94 60.9;" xml:space="preserve">
<style type="text/css">
	.st0{fill:url(#SVGID_1_);}
	.st1{fill:url(#SVGID_00000145746160759077993330000017041791949339088789_);}
	.st2{fill:url(#SVGID_00000182493332097141356630000000210505181349496983_);}
	.st3{fill:url(#SVGID_00000044897049326452240830000007678599196611196851_);}
	.st4{fill:#F6F6F6;}
	.st5{fill:#505ADD;}
	.st6{fill:#DF42B1;}
</style>
<text transform="matrix(1 0 0 1 -508.8637 -343.1597)" style="font-family:'BookmanOldStyle'; font-size:72px;">L</text>
<text transform="matrix(1 0 0 1 -505.5522 -262.3979)" style="font-family:'GreekC'; font-size:72px;">L</text>
<text transform="matrix(1 0 0 1 -367.5522 -343.1597)" style="font-family:'Century'; font-size:72px;">L</text>
<g>
	<text transform="matrix(1 0 0 1 -434.4731 -342.8003)" style="font-family:'CambriaMath'; font-size:72px;">L</text>
</g>
<g>
	<linearGradient id="SVGID_1_" gradientUnits="userSpaceOnUse" x1="13.3924" y1="-12.5639" x2="100.2785" y2="58.8285">
		<stop  offset="0" style="stop-color:#DF42B1"/>
		<stop  offset="1" style="stop-color:#505ADD"/>
	</linearGradient>
	<path class="st0" d="M53.2,13.5c0,0.4,0.1,0.9,0.1,1.4V28h9.4C62.8,20.3,58.7,15.5,53.2,13.5z"/>
	
		<linearGradient id="SVGID_00000065796599788213535260000012558267938221444248_" gradientUnits="userSpaceOnUse" x1="3.2429" y1="-0.2117" x2="90.129" y2="71.1807">
		<stop  offset="0" style="stop-color:#DF42B1"/>
		<stop  offset="1" style="stop-color:#505ADD"/>
	</linearGradient>
	<path style="fill:url(#SVGID_00000065796599788213535260000012558267938221444248_);" d="M87.5,35.9c-0.8,5-2.4,8.9-4.8,11.7
		c-2.5,2.8-5.6,4.1-9.4,4.1c-1.8,0-3-0.4-3.7-1.3c-0.7-0.8-1.1-2.3-1.1-4.5V14.9c0-2.5,0.5-4.3,1.4-5.3c0.9-1,2.6-1.6,4.9-1.7V6H47
		H19.3v1.8c2.3,0.1,3.9,0.7,4.8,1.7c0.9,1,1.4,2.8,1.4,5.3V46c0,2.2-0.4,3.7-1.1,4.5c-0.7,0.8-2,1.3-3.7,1.3c-3.8,0-6.9-1.4-9.4-4.1
		C8.9,44.9,7.3,41,6.5,35.9l-2,0.2l1.9,18.7H47h40.6l1.9-18.7L87.5,35.9z M68.2,32.6h-15V46c0,0.6,0,1.1-0.1,1.6
		c4.4-1.5,7.4-4.8,8.5-9h6c-2,8.4-9.2,14.7-20.3,14.7c-0.1,0-0.3,0-0.4,0c-12.4-0.2-21.4-8.9-21.4-22.9c0-14,8.8-22.7,21.4-22.8
		c0.1,0,0.3,0,0.4,0c13,0,21,9.3,21,20.6C68.4,30,68.4,31.1,68.2,32.6z"/>
	
		<linearGradient id="SVGID_00000049910786166231017920000003171988471683893942_" gradientUnits="userSpaceOnUse" x1="6.1551" y1="-3.756" x2="93.0412" y2="67.6364">
		<stop  offset="0" style="stop-color:#DF42B1"/>
		<stop  offset="1" style="stop-color:#505ADD"/>
	</linearGradient>
	<path style="fill:url(#SVGID_00000049910786166231017920000003171988471683893942_);" d="M31.4,28h9.4V14.9c0-0.4,0-0.8,0-1.2
		C35.7,15.8,31.9,20.6,31.4,28z"/>
	
		<linearGradient id="SVGID_00000026881524660771444800000005529779829988069019_" gradientUnits="userSpaceOnUse" x1="-1.5316" y1="5.599" x2="85.3544" y2="76.9914">
		<stop  offset="0" style="stop-color:#DF42B1"/>
		<stop  offset="1" style="stop-color:#505ADD"/>
	</linearGradient>
	<path style="fill:url(#SVGID_00000026881524660771444800000005529779829988069019_);" d="M40.8,32.6h-9.4
		c0.3,7.5,4.2,12.4,9.4,14.6c0-0.4,0-0.8,0-1.2V32.6z"/>
</g>
<g>
	<g>
		<path d="M-318.8-93.9c0,2.2,0.4,3.7,1.1,4.5c0.7,0.8,2,1.3,3.7,1.3c3.8,0,6.9-1.4,9.4-4.2c2.5-2.8,4.1-6.7,4.8-11.7l2,0.2
			l-1.9,18.7h-40.6v-1.8c2.3-0.1,3.9-0.6,4.8-1.7c1-1.1,1.4-2.8,1.4-5.4V-125c0-2.5-0.5-4.3-1.4-5.3s-2.6-1.6-4.8-1.7v-1.8h27.7v1.8
			c-2.3,0.1-3.9,0.7-4.9,1.7c-0.9,1-1.4,2.8-1.4,5.3L-318.8-93.9L-318.8-93.9z"/>
	</g>
	<g>
		<path d="M-361.7-125c0-2.5-0.5-4.3-1.4-5.3c-0.9-1-2.5-1.6-4.9-1.7v-1.8h27.7v1.8c-2.3,0.1-3.9,0.7-4.8,1.7s-1.4,2.8-1.4,5.3v31.1
			c0,2.5,0.5,4.3,1.4,5.4s2.6,1.6,4.8,1.7v1.8h-40.6l-1.9-18.7l2-0.2c0.8,5,2.4,8.9,4.8,11.7s5.6,4.2,9.4,4.2c1.8,0,3-0.4,3.7-1.3
			s1.1-2.3,1.1-4.5L-361.7-125L-361.7-125z"/>
	</g>
</g>
<g>
	<path class="st4" d="M-339.8-86.6c-12.6,0-21.8-8.8-21.8-22.9c0-14.2,9-22.9,21.8-22.9c13,0,21,9.3,21,20.6c0,1.8,0,2.9-0.2,4.5
		h-36.9c0.5,10.4,7.7,15.9,16,15.9c7.6,0,12.7-4,14.3-9.9h6C-321.5-92.9-328.7-86.6-339.8-86.6z M-355.9-111.9h31.2
		c0.2-10.3-7.2-15.5-15.5-15.5C-348.1-127.4-355.2-122.2-355.9-111.9z"/>
</g>
<g>
	<text transform="matrix(1 0 0 1 -337.808 -193.7798)" style="font-family:'Dutch801BT-ExtraBold'; font-size:72px;">L</text>
	<text transform="matrix(-1 0 0 1 -335.584 -193.7798)" style="font-family:'Dutch801BT-ExtraBold'; font-size:72px;">L</text>
</g>
<text transform="matrix(1 0 0 1 -359.083 -198.1713)" class="st4" style="font-family:'ArialMT'; font-size:72px;">e</text>
<text transform="matrix(1 0 0 1 -262.7939 -180.8695)" style="font-family:'ArialMT'; font-size:18px;">Last Level Event</text>
<text transform="matrix(1 0 0 1 -263.3333 -159.1021)" style="font-family:'ArialMT'; font-size:11px;">Last Level Event</text>
<text transform="matrix(1 0 0 1 -263.3337 -137.3346)" style="font-family:'ArialMT'; font-size:14px;">Last Level Event</text>
<text transform="matrix(1 0 0 1 -263.334 -115.5671)" style="font-family:'ArialMT'; font-size:14px;">Last Level Event</text>
<text transform="matrix(1 0 0 1 -263.3333 -93.7997)" style="font-family:'ArialMT'; font-size:14px;">Last Level Event</text>
<text transform="matrix(1 0 0 1 -263.3337 -72.0323)" style="font-family:'ArialMT'; font-size:18px;">Last Level Event</text>
<text transform="matrix(1 0 0 1 -263.334 -50.2649)" style="font-family:'ArialMT'; font-size:18px;">Last Level Event</text>
<text transform="matrix(1 0 0 1 -263.3333 -28.4974)" style="font-family:'ArialMT'; font-size:18px;">Last Level Event</text>
<text transform="matrix(1 0 0 1 -263.3333 -7.9056)" style="font-family:'ArialMT'; font-size:18px;">Last Level Event</text>
<text transform="matrix(1 0 0 1 -261.2191 12.686)" style="font-family:'ArialMT'; font-size:18px;">Last Level Event</text>
<text transform="matrix(1 0 0 1 -263.3333 33.2777)" style="font-family:'ArialMT'; font-size:18px;">Last Level Event</text>
<rect x="-71.8" y="-59.6" class="st5" width="11.8" height="11.8"/>
<rect x="-73" y="-37.8" class="st6" width="13.1" height="13.1"/>
</svg>
